<svg width="25" height="322" viewBox="0 0 25 322" fill="none" xmlns="http://www.w3.org/2000/svg">
<rect width="24.9655" height="24.9655" transform="matrix(1 0 0 -1 0 321.778)" fill="white"/>
<rect width="24.9655" height="24.9655" transform="matrix(1 0 0 -1 0 303.227)" fill="#EFEFEF"/>
<rect width="24.9655" height="24.9655" transform="matrix(1 0 0 -1 0 284.676)" fill="#DFDFDF"/>
<rect width="24.9655" height="24.9655" transform="matrix(1 0 0 -1 0 266.125)" fill="#CFCFCF"/>
<rect width="24.9655" height="24.9655" transform="matrix(1 0 0 -1 0 247.575)" fill="#BFBFBF"/>
<rect width="24.9655" height="24.9655" transform="matrix(1 0 0 -1 0 229.024)" fill="#AFAFAF"/>
<rect width="24.9655" height="24.9655" transform="matrix(1 0 0 -1 0 210.473)" fill="#9F9F9F"/>
<rect width="24.9655" height="24.9655" transform="matrix(1 0 0 -1 0 191.922)" fill="#8F8F8F"/>
<rect width="24.9655" height="24.9655" transform="matrix(1 0 0 -1 0 173.372)" fill="#808080"/>
<rect width="24.9655" height="24.9655" transform="matrix(1 0 0 -1 0 154.821)" fill="#707070"/>
<rect width="24.9655" height="24.9655" transform="matrix(1 0 0 -1 0 136.27)" fill="#606060"/>
<rect width="24.9655" height="24.9655" transform="matrix(1 0 0 -1 0 117.719)" fill="#505050"/>
<rect width="24.9655" height="24.9655" transform="matrix(1 0 0 -1 0 99.1686)" fill="#404040"/>
<rect width="24.9655" height="24.9655" transform="matrix(1 0 0 -1 0 80.6178)" fill="#303030"/>
<rect width="24.9655" height="24.9655" transform="matrix(1 0 0 -1 0 62.067)" fill="#202020"/>
<rect width="24.9655" height="24.9655" transform="matrix(1 0 0 -1 0 43.5162)" fill="#101010"/>
<rect width="24.9655" height="24.9655" transform="matrix(1 0 0 -1 0 24.9656)" fill="black"/>
</svg>
