<?xml version="1.0" encoding="utf-8"?>
<!-- Generator: Adobe Illustrator 27.3.1, SVG Export Plug-In . SVG Version: 6.00 Build 0)  -->
<svg version="1.1" id="Layer_1" xmlns="http://www.w3.org/2000/svg" xmlns:xlink="http://www.w3.org/1999/xlink" x="0px" y="0px"
	 viewBox="0 0 2279 1281.9" style="enable-background:new 0 0 2279 1281.9;" xml:space="preserve">
<style type="text/css">
	.st0{opacity:0.2;clip-path:url(#SVGID_00000008113473198982555100000001224626655279839414_);}
	.st1{fill:none;stroke:#000000;stroke-width:1.0336;}
	.st2{opacity:0.2;clip-path:url(#SVGID_00000043435539821795817590000013621238871539397560_);}
	.st3{fill:none;stroke:#000000;stroke-width:2.1703;}
</style>
<g>
	<g>
		<g>
			<g>
				<g>
					<defs>
						<rect id="SVGID_1_" width="2279" height="1281.9"/>
					</defs>
					<clipPath id="SVGID_00000109017369936796680490000001701018037525198209_">
						<use xlink:href="#SVGID_1_"  style="overflow:visible;"/>
					</clipPath>
					<g style="opacity:0.2;clip-path:url(#SVGID_00000109017369936796680490000001701018037525198209_);">
						<path class="st1" d="M1105.9-27.4h1292.6"/>
						<path class="st1" d="M1105.9,45h1292.6"/>
						<path class="st1" d="M1105.9,117.4h1292.6"/>
						<path class="st1" d="M1105.9,189.7h1292.6"/>
						<path class="st1" d="M1105.9,262.1h1292.6"/>
						<path class="st1" d="M1105.9,334.4h1292.6"/>
						<path class="st1" d="M1105.9,406.8h1292.6"/>
						<path class="st1" d="M1105.9,479.2h1292.6"/>
						<path class="st1" d="M1105.9,551.5h1292.6"/>
						<path class="st1" d="M1105.9,623.9h1292.6"/>
						<path class="st1" d="M1105.9,696.2h1292.6"/>
						<path class="st1" d="M1105.9,768.6h1292.6"/>
						<path class="st1" d="M1105.9,841h1292.6"/>
						<path class="st1" d="M1105.9,913.3h1292.6"/>
						<path class="st1" d="M1105.9,985.7h1292.6"/>
						<path class="st1" d="M1105.9,1058h1292.6"/>
						<path class="st1" d="M1105.9,1130.4h1292.6"/>
						<path class="st1" d="M1105.9,1202.6h1292.6"/>
						<path class="st1" d="M1121.3,1281.9V-10.7"/>
						<path class="st1" d="M1193.6,1281.9V-10.7"/>
						<path class="st1" d="M1266,1281.9V-10.7"/>
						<path class="st1" d="M1338.3,1281.9V-10.7"/>
						<path class="st1" d="M1410.7,1281.9V-10.7"/>
						<path class="st1" d="M1483,1281.9V-10.7"/>
						<path class="st1" d="M1555.4,1281.9V-10.7"/>
						<path class="st1" d="M1627.8,1281.9V-10.7"/>
						<path class="st1" d="M1700.1,1281.9V-10.7"/>
						<path class="st1" d="M1772.5,1281.9V-10.7"/>
						<path class="st1" d="M1844.8,1281.9V-10.7"/>
						<path class="st1" d="M1917.2,1281.9V-10.7"/>
						<path class="st1" d="M1989.6,1281.9V-10.7"/>
						<path class="st1" d="M2061.9,1281.9V-10.7"/>
						<path class="st1" d="M2134.3,1281.9V-10.7"/>
						<path class="st1" d="M2206.6,1281.9V-10.7"/>
						<path class="st1" d="M2279,1281.9V-10.7"/>
						<path class="st1" d="M2351.4,1281.9V-10.7"/>
					</g>
					<use xlink:href="#SVGID_1_"  style="overflow:visible;fill:none;stroke:#FFFFFF;stroke-miterlimit:10;"/>
				</g>
			</g>
		</g>
	</g>
	<g>
		<g>
			<g>
				<g>
					<defs>
						<rect id="SVGID_00000022533514816498265190000007706664087357755776_" width="2279" height="1281.9"/>
					</defs>
					<clipPath id="SVGID_00000004522393524387191890000016958549125885357233_">
						<use xlink:href="#SVGID_00000022533514816498265190000007706664087357755776_"  style="overflow:visible;"/>
					</clipPath>
					<g style="opacity:0.2;clip-path:url(#SVGID_00000004522393524387191890000016958549125885357233_);">
						<path class="st1" d="M-186.7-27.4h1292.6"/>
						<path class="st1" d="M-186.7,45h1292.6"/>
						<path class="st1" d="M-186.7,117.4h1292.6"/>
						<path class="st1" d="M-186.7,189.7h1292.6"/>
						<path class="st1" d="M-186.7,262.1h1292.6"/>
						<path class="st1" d="M-186.7,334.4h1292.6"/>
						<path class="st1" d="M-186.7,406.8h1292.6"/>
						<path class="st1" d="M-186.7,479.2h1292.6"/>
						<path class="st1" d="M-186.7,551.5h1292.6"/>
						<path class="st1" d="M-186.7,623.9h1292.6"/>
						<path class="st1" d="M-186.7,696.2h1292.6"/>
						<path class="st1" d="M-186.7,768.6h1292.6"/>
						<path class="st1" d="M-186.7,841h1292.6"/>
						<path class="st1" d="M-186.7,913.3h1292.6"/>
						<path class="st1" d="M-186.7,985.7h1292.6"/>
						<path class="st1" d="M-186.7,1058h1292.6"/>
						<path class="st1" d="M-186.7,1130.4h1292.6"/>
						<path class="st1" d="M-186.7,1202.6h1292.6"/>
						<path class="st1" d="M-171.3,1281.7V-10.9"/>
						<path class="st1" d="M-98.9,1281.7V-10.9"/>
						<path class="st1" d="M-26.6,1281.7V-10.9"/>
						<path class="st1" d="M45.8,1281.7V-10.9"/>
						<path class="st1" d="M118.2,1281.7V-10.9"/>
						<path class="st1" d="M190.5,1281.7V-10.9"/>
						<path class="st1" d="M262.9,1281.7V-10.9"/>
						<path class="st1" d="M335.2,1281.7V-10.9"/>
						<path class="st1" d="M407.6,1281.7V-10.9"/>
						<path class="st1" d="M479.9,1281.7V-10.9"/>
						<path class="st1" d="M552.3,1281.7V-10.9"/>
						<path class="st1" d="M624.7,1281.7V-10.9"/>
						<path class="st1" d="M697,1281.7V-10.9"/>
						<path class="st1" d="M769.4,1281.7V-10.9"/>
						<path class="st1" d="M841.7,1281.7V-10.9"/>
						<path class="st1" d="M914.1,1281.7V-10.9"/>
						<path class="st1" d="M986.5,1281.7V-10.9"/>
						<path class="st1" d="M1058.8,1281.7V-10.9"/>
						<path class="st3" d="M-435.1,1262.6H2279"/>
					</g>
					
						<use xlink:href="#SVGID_00000022533514816498265190000007706664087357755776_"  style="overflow:visible;fill:none;stroke:#FFFFFF;stroke-miterlimit:10;"/>
				</g>
			</g>
		</g>
	</g>
</g>
</svg>
